#define 1521996173235_width 17
#define 1521996173235_height 11
static char 1521996173235_bits[] = {
  0xFE, 0xFF, 0x00, 0x02, 0x80, 0x00, 0x02, 0x81, 0x00, 0x82, 0x83, 0x01, 
  0x12, 0x87, 0x01, 0xE2, 0x99, 0x01, 0xC2, 0xC1, 0x01, 0x82, 0xC1, 0x00, 
  0x02, 0x81, 0x00, 0xFE, 0xFF, 0x00, 0x00, 0x00, 0x00, };
