#define 1521996151951_width 17
#define 1521996151951_height 11
static char 1521996151951_bits[] = {
  0xDA, 0x36, 0x00, 0x6A, 0xDA, 0x00, 0x02, 0xC0, 0x00, 0x02, 0x80, 0x01, 
  0x02, 0x80, 0x01, 0x02, 0xC0, 0x01, 0x02, 0x80, 0x01, 0x02, 0xC0, 0x00, 
  0x02, 0x80, 0x00, 0xFE, 0xFF, 0x00, 0x84, 0x28, 0x00, };
