#define 1521996138200_width 17
#define 1521996138200_height 10
static char 1521996138200_bits[] = {
  0xFE, 0x7F, 0x00, 0x02, 0x80, 0x00, 0xBA, 0xBB, 0x00, 0xBA, 0xBB, 0x01, 
  0xBA, 0xBB, 0x01, 0xBA, 0xBB, 0x01, 0xBA, 0xBB, 0x01, 0xBA, 0xBB, 0x00, 
  0x02, 0x80, 0x00, 0xFE, 0xFF, 0x00, };
