#define 1521996129829_width 17
#define 1521996129829_height 11
static char 1521996129829_bits[] = {
  0x40, 0x00, 0x00, 0xFE, 0xFF, 0x00, 0x02, 0x80, 0x00, 0x3A, 0x80, 0x00, 
  0x3A, 0x80, 0x01, 0x3A, 0xC0, 0x01, 0x3A, 0x80, 0x01, 0x3A, 0xC0, 0x00, 
  0x3A, 0x80, 0x00, 0x42, 0xA9, 0x00, 0x5E, 0x76, 0x00, };
