#define 1521996110069_width 17
#define 1521996110069_height 11
static char 1521996110069_bits[] = {
  0x00, 0x00, 0x00, 0xFE, 0xFF, 0x00, 0x02, 0x80, 0x00, 0xBA, 0x83, 0x00, 
  0xBA, 0x83, 0x01, 0xBA, 0x83, 0x01, 0xBA, 0xC3, 0x01, 0xBA, 0x83, 0x01, 
  0xBA, 0x81, 0x00, 0x02, 0x80, 0x00, 0xFE, 0xFF, 0x00, };
